<svg xmlns="http://www.w3.org/2000/svg" viewBox="0 0 686.46 854.76"><defs><style>.broken-robot{fill:#4285f4;}</style></defs><title>Broken Robot</title><path class="broken-robot" d="M390,827.68c-3,.48-5.76.76-2.75-3.53,3.29-4.68,6.35-9.53,9.77-14.11C410.87,791.5,424,772.54,432.78,751a18.89,18.89,0,0,0,1.22-5.89c.79-8.62,7.24-15.21,15.85-14.87,6.19.24,8.52-1.7,7.48-7.72a10,10,0,0,1,0-1.55c0-12.27-4.74-15.21-16.3-10.08a2.38,2.38,0,0,1-3.47-1.86c-1.25-10.83-9.83-17.65-16.71-23.11-18.35-14.56-33.21-33-52.87-46-7.34-4.82-16.6-6.14-23.06-12.62-1.18-1.18-3.76-1.95-1.93-4a3.93,3.93,0,0,1,5.37-.58c17.28,11.41,36,20.76,49.7,37.14,3.89,4.66,9.25,8.31,14.46,11.59,8.46,5.32,12.63,14.75,21,21.08.7-6.57-2.42-11.82-4.94-16.33a178.1,178.1,0,0,0-34.48-43.91c-11-10.12-24.18-17.4-40.3-16.13-2.11.16-4.19-.25-2.3-3.54,5.43-9.46,11.48-18.24,21.23-23.89,10.91-6.32,22.45-4.19,31.3,6.94,2.75,3.45,5.77,6.55,8.77,9.67,15.49,16.12,30.89,32.32,46.75,48.06,6.93,6.88,15.07,12.51,22.27,19.13,3.69,3.4,4.8,8,2.36,12.95-2.67,5.47-4.56,11.68-12.76,11.59.55-4.59,4.46-6.07,6.35-9.07,3.17-5,3.47-9.63-.33-13.9a14.09,14.09,0,0,0-13.85-4.54c-12.26,2.65-23.91,19.56-21.52,32.19.72,3.81,5.95,3.21,9.44,3.36,1.91.08,5.52,1,3.3-3.31-.6-1.16-.45-2.1.58-2.54a3,3,0,0,1,3.56.66,12.06,12.06,0,0,1,3.11,8.4c-.15,6.21.17,12.44-.12,18.65-.15,3.12,1.24,4.53,3.71,5.82,7.24,3.79,8.93,2.94,8.76-5.2-.13-6.31,1.19-12.71-2.69-18.75-1.65-2.56,3.6-6,.38-9.62,5.05,2.72,5.64,7.49,6.09,12,.81,8.23,4.57,16.31,1.18,24.82-.63,1.59-1.17,4.13,1.8,5.09,5.37,1.74,7.36,6.72,9.88,11s4.21,7.76-.64,13.22c-6.79,7.63-11.33,17.35-16.33,26.46-11.46,20.9-23.76,41-40.59,58.34-6,6.15-10,14.17-18.14,18.33H406c-10.88-9.88-14.68-23.06-17.62-36.8-.51-2.38,2.95-2.22,1.45-4.16,7.31,2.17,14-4.59,21.45-1.42.4.17,1.73-1.11,2.19-2,10.31-18.85,23-36.61,26.74-58.48.72-4.27,3.18-8,3.36-12.49a3.2,3.2,0,0,1,4-2.78c2.72.5,2,2.34,1.46,4.14-2.4,8.25-4.34,16.65-7.19,24.73-5.38,15.26-14.08,28.93-21.64,43.14-1.52,2.85-4.71,5.09-.37,8.89,7.17,6.27,7,6.74,12.52-1.8,1.53-2.37,3.48-4.36,5.07-6.65,13.71-19.7,23.95-41.24,33.57-63.05,1.83-4.17,3.52-3.28,6.83-2.63-8.77,18-16.72,36.09-26.81,53.14-5.49,9.27-10.88,18.77-18.24,26.54-3.06,3.23-3.59,5.49-2.94,9.73a133.93,133.93,0,0,0,16.72-18.89c13.69-19.33,24.91-40.09,35.85-61,5.8-11.09,4.64-18.43-5.79-23.65-7.28-3.65-14.06-8.8-23.15-8.88-7.08-.06-11.89,2.26-13.31,9a57.58,57.58,0,0,1-2.84,9.41C426.15,780.48,408,804,390,827.68ZM439.2,687.44c.63-3.91,1.65-7.92,4.25-10,5.61-4.38,3-8.39.7-12.71-5.37-10.16-12.88-18.89-19.16-28.39-8.27-12.51-21.59-18.9-31.67-29.07-1.09-1.1-4.4-.67-3.29-3.31.94-2.23,3.18-1.62,5.35-.65,4.44,2,6.59,6.64,10.5,8.93,19.64,11.49,31.86,30.06,42.27,48.83,4.75,8.55,7,6.66,12.46,4.24,2.59-1.14,3.95-2.35,1.07-4.75-15.27-12.73-28-28.08-42.24-41.87-7.59-7.34-17.09-13.22-22.1-23.58-3.08-6.38-13.54-8.42-19.59-4.84a56.42,56.42,0,0,0-16.17,14.06c-2.09,2.73-4.06,5.88,2.17,7.69,8.63,2.52,17.37,5.57,25.1,10.06,12.39,7.21,20.15,19.6,29.36,30.16C427.13,662.53,433.92,674.5,439.2,687.44Zm-14.56,159c-.78-6-5.65-10.43-12.9-14.35a16.34,16.34,0,0,0-15.23-.28c-4.06,2-.63,7.76.3,11.76a42.1,42.1,0,0,0,3.38,10c2.84,5.38,6.57,10.69,13.52,9.92C419.67,862.88,424.71,855.24,424.64,846.47Z" transform="translate(-10.42 -13.7)"/><path class="broken-robot" d="M696.88,574.46c-3.74,6.22-1.87,13.42-2.58,20C693,606.13,687.5,615,681,623.77q-2.49,3.38-5.13,6.65c-1.27,1.57-3.15,2.41-4.7,1s.44-2.59,1.28-3.7c10.36-13.78,10.06-13.59.71-28.24-3.63-5.69-8-8.81-14.36-7.93-5.39.74-5.26,6.8-8.64,10.64,9.35-.63,11.76,7.2,16.67,11.67.89.82.25,1.86-.43,2.72-1.15,1.46-2.1.79-3.06-.18s-2.17-1.69-2.66-2.8c-3.43-7.83-9.55-8-16.39-5.79-1.73.56-3.51,1.83-4.57-.28-.83-1.66,1.21-2.62,2.19-3.71,13-14.6,16.17-34.59,6.51-51.25-7.3-12.58-18.8-21.32-30.7-29.78-9.19-6.53-18.59-11.08-29.55-12.78-5.64-.88-11.2-1.89-17-1-3.08.45-8.42,1.22-3.83-5.28,1.37-1.95.44-5.55.47-8.39.14-12.13,9.81-22,21.71-21.92,23.8.17,45,8.67,65.72,19.61,23.95,12.68,34.4,34.1,40.14,58.92.24,1.06.38,2,1.55,2.34Zm-37.7-74.7c-7-3.89-12.85-7.23-18.8-10.29-2.48-1.28-5.4-1.1-6.88,1.49-4,6.93-10.24,12.82-9.82,21.8.08,1.76,1.33,4.75-1.38,5.25-2.95.54-3.1-2.92-4.18-4.74s-.69-3.85.27-5.88c2.48-5.25,4.6-10.59,8.64-15,1.71-1.89,5.27-5.78,1.65-7.59a48.68,48.68,0,0,0-18.07-4.88c-5.21-.38-6.75,5.69-9.36,9.22-3.54,4.81-3.75,10.88-4.53,16.67-.36,2.7,1.14,2.85,2.91,3.35,12.7,3.59,22.67,11.81,32.79,19.4C637.18,515.83,644.37,505.34,659.18,499.76ZM649,544.49c5.45-10.56,13.35-17.94,22.06-24.66,1.31-1,4.59-1.15,3.74-3.05a28.27,28.27,0,0,0-10-12.26c-2.3-1.5-5.79-.52-8.37,1a38.38,38.38,0,0,0-7.44,5.24c-5.81,5.44-10.15,12.07-11.39,19.92-.83,5.22,5.52,6.23,8,9.64C646.59,541.69,647.75,543,649,544.49Zm43.26,21.17c.6-6.75-3.43-12.7-3.35-19.4,0-1.39-1.09-2.75-3.18-1.87a59,59,0,0,0-27.42,23.09c-1.27,2-1.62,6.5,4.42,5.72,6.32-.81,13-1.05,19.23.22C692,575.49,692.24,575.83,692.21,565.66Zm-35.37-6.39c6.61-6.13,13.23-11.89,20.94-15.56,6.58-3.12,9.15-5.25,5.44-13-5.44-11.46-4.64-11.84-14.11-3.8C654,539.71,651.91,545.22,656.84,559.27Zm-64.4-52.71c-2.67-8.68.83-15.49,6.15-22.06,1.16-1.43,6.63-4.6-.93-6.81s-13.19-.82-18.88,4c-6.75,5.77-4.55,13.32-4.67,20.45,0,2.16,1.65,2.45,3.25,2.24C582.56,503.73,587.21,506.61,592.44,506.56Zm92.87,102.13c1.27-4.33,2.44-7.9,3.36-11.54,3.05-12.1-1.45-19.7-12.74-21-5.5-.64-10.9,3.18-16.58.72-1.08-.47-1,.65-1.25,1.23-2,4.56,1.12,10.61,6,10.12,6.76-.66,9.36,3.66,12.44,7.84C679.41,599.89,682,603.89,685.31,608.69Z" transform="translate(-10.42 -13.7)"/><path class="broken-robot" d="M410.92,287.27c15-7.73,29.12-14.55,43.6-20.57,5.68-2.36,11.57-3.34,17.38-4.89,7.27-1.94,11.54-7.32,11.9-14.87.94-19.85-3.22-39.29-4.42-58.95-.76-12.31-.79-24.69-1.82-37-.2-2.39,0-5.35,2.85-5.45,3.56-.13,3.38,3.14,3.35,5.73-.2,15.73-.63,31.54,1.73,47.11s4.41,31.4,4.48,47.3c0,10.89-4.63,16.81-15.6,19.29-21.71,4.91-40.87,15.82-60.32,25.84-6.58,3.39-11.86.33-17.21-.53-11.94-1.93-23.57-5.82-35.36-8.92a3.13,3.13,0,0,0-.5,1.13c-.43,11.77-2.35,13.35-14.28,12-7.5-.86-14.3-4.12-20.12-8.25-4.49-3.19-3.36-9.8-2.91-15,.31-3.53-.43-5.14-3.93-6.51-15.2-5.92-30.45-11.8-45.27-18.61-10.72-4.92-20.78-11.26-31.12-17-3.53-2-6.77-5.06-10.53-5.88-7-1.53-7.36-6-6.31-11.26,3.24-16.3,2.25-32.54,1-49-.78-9.85,1.89-19.95,1.16-30-.75-10.2-1.73-20.38-2.83-30.54-.3-2.75.22-4.61,3-5.37,27.53-7.57,54.21-18.23,83.46-19.3,8.65-.31,15,2.32,21.84,5.68,3,1.49,5.89,3,9.73,3.17,0-12.25-.16-24.47.09-36.68.08-4-.92-5.31-5.19-6.31-14-3.29-17.1-7.46-16.68-19.43.26-7.45,5.83-11.93,13.07-10,3.73,1,7.14-.57,11-.07,11,1.43,18,7.54,23.67,16.17,4.31,6.59,2.15,11.71-5.75,12-6,.22-5.53,1.65-5.08,7.11a187.94,187.94,0,0,1-.23,37.94c-.43,3.58-.3,5.87,3.76,6.61,1.45.27,3.54.86,4,1.92,3.6,7.55,12.17,6.22,17.79,10.23,6.41,4.56,14.1,6.84,21.74,8.69,14.49,3.52,29,6.95,43.58,10.06,8,1.71,15.26,5.33,22.88,8,3.79,1.31,1.35,3.45-.25,4.08-19.48,7.68-36.22,20.79-55.75,28.2-5.45,2.06-7.17,5.47-7.2,10-.08,14.88,1.87,29.69,2.58,44.52.73,15.4,1.57,30.92-.73,46.39C410.11,272.54,410.92,279.36,410.92,287.27ZM234.05,100.39c18.21,5.71,34.67,11.86,52,15.13,15.42,2.9,30.24,8.25,45.63,11.52,10.54,2.24,21.62,3.61,31.53,7.85,14.59,6.24,29.17,12.7,42.84,21,1.55.94,4.51.62,3.47,3.27-1.18,3-3.4.33-5.21.13-1.65-.17-2.75-1.07-4.09-1.85-15.81-9.16-32.36-17.18-49.94-21.7-14.14-3.64-28.91-5.51-42.88-9.75-25-7.59-50.72-12.8-75.35-21.94-1.37,6,1.54,11.35,1.4,17.06-.41,16.84-1.1,33.77.16,50.52a167.35,167.35,0,0,1-1.71,38c-.56,3.69-1.69,10.22.78,10.94,4.93,1.44,9.59,6.85,15.44,3.21-.62-3.05-1.21-6-1.84-9-1.33-6.35.21-10.19,7.26-12.43,5.62-1.79,11.51-3.67,16.95-3.78,16.29-.33,33-3.45,48.85,1.5,23.6,7.38,43.77,21.26,61.47,38.22,11.8,11.3,10.48,21.37-2.28,31.45-1.76,1.39-5.24,1.79-5.75,3.36-2.5,7.6-5,2.57-7.38.26-6.39-6.25-12.68-12.6-19-18.94a44.07,44.07,0,0,0-18.66-11.43c-19.27-5.93-39.2-8-59-10.63-1.73-.23-4-.55-4.81,1.52-1,2.51,1.39,2.63,2.92,3.32q27.22,12.15,54.45,24.3c1.82.8,3.59.63,3.8-2.1.11-1.37-.56-3.63,1.77-3.46,1.92.15,2.77,1.86,3,3.93.33,3.45,1.16,6.5,5.16,7.87,18.65,6.4,37.24,12.91,56.42,17.64A45.43,45.43,0,0,0,402,286.7c2.32,0,4.09-.32,4-3.27-.56-16.51,2-33.06,1.17-49.43-.95-18.72-1.28-37.48-2.62-56.18-.54-7.58-.44-12.94,10.11-16.86,17.41-6.46,32.74-18.29,50.54-26-11.25-7.33-24-6.2-35.54-9.89-18.1-5.81-38.13-5.87-55.07-20.27,3.28,9-.81,12.67-7.19,13.54-11.8,1.6-23-1.81-32.54-8.22-11-7.43-8.32-14.76,1.87-18.35.31-.1.4-.83.6-1.26-11.83-7.87-16.58-10.35-25.82-9-16.25,2.38-33.16,2.21-48.38,9.35C254.19,95.08,244.29,96.11,234.05,100.39Zm92.58-72.16c1.2,4.05,2.17,8.41,9.69,10,8.23,1.75,15.65-3.1,23.57-.6,2,.64,5.34-.94,5.24-3.06-.14-2.93.08-6.56-3.06-8.71-5.9-4-12.24-7.17-19.36-8.22C336,16.66,326.76,22.11,326.63,28.23ZM342,94c-4.64,2-3.73,7.49-6.26,10.91-.58.78,2.81,3.92,5.42,4.4,6,1.08,13.34,1.42,17.4,4.39,6,4.37,8.14-1.18,10.84-2.37s-.42-5.35-2.2-8.25C361.08,93.12,349,100.76,342,94Zm32.21,145.52C364.4,231,354.5,222.75,343.48,216c-1.93-1.18-3.9-3-5.65-.12-2.54,4.25.29,11.86,5.33,13.52,7.64,2.53,14.23,7,20.55,11.56C368.86,244.63,371.55,244.25,374.18,239.47Zm-7.71,8.6c-8.22-7.08-19.4-9.52-27.73-16.73-1.53-1.32-3.73-1.39-4.37,1.9-.85,4.38-1.86,8.11,3.87,10.3,3.69,1.42,6.9,4.2,10.13,6.63s6.75,7.65,9,7.08C360.81,256.39,363.25,251.59,366.47,248.07Zm-38.23,27.62c-.4,2.55.6,4.57,2.53,6.68,4.79,5.26,11,6.71,17.55,8.35,4.6,1.15,6.65-1,7.63-4.06,1.27-4,0-8.44-4.66-9-6-.76-11-3.66-16.06-6.3C330.32,268.78,327.94,269.68,328.24,275.69ZM307,209.56c2.39-8.14-2.79-8.66-8.82-8.45-3.34.11-6.69,0-10,0s-6.16-.09-6.68,4.36c-.49,4.17.68,6.69,5,7.51,5,.94,9.92,1.75,14.93,2.42C307,216.16,309.84,216.36,307,209.56Zm6.13-7.16c-1.32,16.41-1.05,15.48,12.19,19.31,8.24,2.39,7-1.45,7.74-6.49.69-4.48-.44-6-4.64-7.1C323.42,206.8,318.65,204.51,313.16,202.4Zm-29.42,16.39c1.84,3.47-.79,9.07,4.05,10.83,5.87,2.15,12.55,1.28,18.47,3.87.3.13,1.25-.66,1.56-1.21,1.86-3.4-1.25-11.82-4.92-12.31C296.63,219.15,290.39,216.91,283.74,218.79Zm-18.88-2.87c2.4-.44,4.61-1,6.85-1.22,5.34-.52,5.25-4.12,5.24-8.19,0-5.47-3.9-3.59-6.55-3.78-5.71-.39-10.83,2.33-16.26,3.43-4.15.84-1.75,4.38-1.92,6.54-.18,2.32.6,5.22,3.9,5.46,2.07.16,4.33.41,2.81-3.23-1.29-3.09-2-8.15,1.82-8.54,5.51-.56,3,5.16,3.78,8.24C264.59,214.88,264.66,215.12,264.86,215.92ZM324.42,237c6,2,5.35-4.24,5-5.94-1.49-7.87-9.33-5.89-14.5-7.42-2.27-.67-2,4.62-2,6.58C313.11,237.65,319.25,236.62,324.42,237Zm35.21,23.91c12.11,8.27,13.78,8.72,17,4.56,4.42-5.78-2.57-10-4.24-10.83C366.71,251.69,363.27,257.25,359.63,260.92ZM273.27,229c2.66-.47,7.31,2,6.7-4.09-.34-3.37-.69-7.26-5.36-6.55-3.55.54-9.2-.59-9.76,4.25C264.32,227.22,267.43,230.72,273.27,229Zm109.88,30c2.91-5.58-1-8.95-2.82-12.8-1.08-2.26-2.53-4.61-5-2.24-1.49,1.46-3.2,4-.2,6.56C378,252.92,380.27,255.91,383.15,259Zm-121.8-28.71c-.71-2.63-1.06-4.31-1.6-5.92-2-5.88-5.3-2.59-5.94,0C252.55,229.51,257.72,228.73,261.35,230.31Z" transform="translate(-10.42 -13.7)"/><path class="broken-robot" d="M104.05,327.25c.36-1.55-3.07-3.79-.19-4.39,5.73-1.18,9.21-5.64,13.94-8.09s7.94-6,6.81-10.68c-.94-3.91-4.38-7.38-7.21-10.62-1.32-1.51-2.51.83-3.7,1.61-5.62,3.69-10.9,8.39-18.54,6.72-.06-3,1.45-4.17,3.8-4.17,3,0,5.27-1.68,7.7-3,6.73-3.75,7.74-14.51,1.93-19.46-1.8-1.53-2.76.09-4,.6a67.51,67.51,0,0,1-30.66,4.74c-6.69-.52-13.51-6.86-14-13.12,4.81-1,6.23,3.76,9.16,5.72,12.83,8.62,24.32,2.57,36-2.31,3.86-1.61,8.5-4.41,7.5-8.36a56.68,56.68,0,0,0-4.81-13.14c-4.64,8.25-13.22,6.43-19.73,9.19-9,3.82-18.66,6.07-28,9C49,273,39.53,281.76,26.87,284.07c-5.79,1.05-10-1.76-14-5.46a7.79,7.79,0,0,1-1.52-9.32c2.44-4.79,7.46-7.86,12-10.28,6.74-3.6,12.48-8.6,19.13-12.16,2.32-1.24,3.55-3,2.48-4.73-2.8-4.43-.29-8.47.25-12.59,1.24-9.47,5.13-12.06,16.84-10.29-7.24,2.56-12.52,5.32-12.34,13,.15,6.17.36,12.24,3,17.9,3.58,7.62,10.12,10.77,19.07,9-4.52-7.38-10.6-13.66-12.17-22.52-1.44-8.1,3-19.81,9.72-23.19.67-.34,1.66-1.32,1.82-1.19,5.59,4.62,9.61-.92,14-2.45,10.47-3.71,15.49-2.65,21.31,6.93,2.59,4.26,4,8.71,9,2.2,1.12-1.46,3.64-1.31,5.49-2.32,5.16-2.81,7-6.41,6.81-12.39-.64-20.29,18.76-37.26,42.67-29.3,6.31,2.1,6.08,9.62,7.6,15,.38,1.35,1.19,3.69.8,5.51-.83,3.81-1.82,7.62-7.12,7.27-2-.13-4.42-.37-6.1.49-4,2.06-10.1,2.88-8.34,9.86a11.29,11.29,0,0,0,14.65,7.85c2.83-1,5.37-2.86,8-4.39,4.61-2.67,9-2.11,12.49,1.67,2.92,3.14,4.3,6.81,2.56,11.4-6.19,16.37-19.06,23.74-35.35,25.82-8.9,1.13-15.32-4.35-19.36-11.59-2.49-4.47-4.88-4.86-8.4-2.44a20.78,20.78,0,0,1-4.85,2c-4,1.54-8.94,2.5-11.52,5.44-2.8,3.18,1.71,7,2.61,10.7a6.06,6.06,0,0,1-1.61,5.68c-4.4,4.32-2.87,8.88-1.24,13.5C121.76,297.5,137.41,309,157,310.14c5.52.33,10.89,1.22,16.14-1.22,2.33-1.09,3.63-.19,4.69,2.16,2.36,5.27,6.52,9.52,7.49,15.67.83,5.27,5.32,3.27,9.86,3.08-4.78-6.42-5.18-14.09-12.22-18.72-5.68-3.74-5.9-16.58-1.19-22.05,6.28-7.28,13-14.23,21.13-19.55,1.74-1.13,3-2.13,4.47,0,1.32,1.94-.77,2.65-1.68,3.51-5.73,5.38-11.74,10.46-17.32,16a14.58,14.58,0,0,0,1.49,22c5.81,4.45,6.89,11.76,10.36,17.57,4.87,8.15,10.7,3.67,16.17,3.16s2.82-5.38,2.75-8c-.39-14.92,1.73-29.91-1.31-44.77-.51-2.5-.32-5.84,3.24-5.77,2.89.06,2.86,3,2.91,5.4q.74,33.34,1.54,66.71c.05,2.07-.19,4.17.05,6.22.74,6.12,1.23,11.8,9.77,12.89,7.16.92,13.85,4.51,20.26,8.08,4.87,2.71,7.81,2.23,7.28-4.28-.13-1.55,0-3.11,0-4.67-.18-18.5,1.89-17.78,17.45-11.28,17.38,7.24,35.57,11.42,53.84,15.62,9.68,2.23,19.11,5.66,28.8,8.09,3.54.89,6.38.61,10.66-.81-2,9.49-1.83,18.39-1.93,27.28-.05,4.53,1,6.51,6.14,7.58,13.79,2.85,26.29,10,40.21,12.93,5.59,1.19,6.73.19,6.68-5.11-.19-19.43-.08-38.88-.07-58.32,0-1.81,0-3.63.08-5.44a3.16,3.16,0,0,1,2.79-3.18c2.11-.14,3.23,1.48,3.26,3.48.08,4.4.59,8.91-.12,13.2-3,17.75-1.8,35.4-.1,53.16.5,5.29,2.16,6.66,6.88,6.09,2.72-.33,5.16.18,5.74,3.35a3,3,0,0,1-3.63,1.2c-9.67-4.18-9,2.21-8.68,8.33,1,17.43,1.94,34.86,3.15,52.27.83,11.91-2.28,23.58-1.71,35.48a83.13,83.13,0,0,0,1.58,11.29c.41,2.23-.61,4.36-3.15,4.37-2,0-3-1.8-2.93-3.81.61-13.9-.54-27.79.82-41.76,1.05-10.83-.19-22-1.61-32.9-1.19-9.07-2.23-18.48-.17-26.9,2-8.25-1.76-10.73-7.13-10.59-13.91.35-24.76-8.11-37.34-11.35-2.19-.57-4.2-1.79-6.37-2.46-10.88-3.32-12.55-6.26-9.83-17.43a51.58,51.58,0,0,0,.9-5.26c.94-6.95.13-10.49-9.1-11.1-10-.66-19.7-6-29.68-8.68-13.14-3.56-26.89-4.62-39.7-9.66-6.31-2.49-12.73-4.68-18.54-9.63-2.32,7.57-.22,14.76-2.22,21.72-1.56,5.45-3.61,5.42-8.19,4.58-9.23-1.68-16.53-7.6-25.19-10.59-6.41-2.21-7.49-.76-7.45,5.29.18,28,.1,56,.07,84,0,5.66,2.52,11,1.63,16.81-.41,2.65-1.15,4.68-4.05,4.59-3.45-.1-2.12-3-2.17-4.74-.62-20.38-1.2-40.75-1.58-61.13-.16-8.47,1.8-16.8,1.67-25.36-.26-16.2-2.7-32.22-3.26-48.37-.12-3.38-1.5-3.51-4.48-2.78-5.42,1.31-11,2.63-16.15-1.41-1.9-1.48-4.1-.57-6.42.54-24.49,11.73-50.54,13.72-75.81,5.8C97,334.3,83.77,319.13,79.3,298c-1.09-5.2-2.44-10.32-.66-16.74,3.2,4,2.74,8.21,3.65,11.78,2.24,8.81,3.78,18.05,10.45,24.67,3.43,3.41,4.63,10.11,11.53,9.33,3.23,7.67,11,8.17,17.25,11.27,5.72,2.82,9.15.29,11.53-3.78,3.94-6.72,5.5-14.14,2.68-21.86-.61-1.68.06-4.14-3.21-4.27-2.77-.11-3,2-4.41,3.31C121,318.27,114.48,325.82,104.05,327.25ZM108.56,246c9.35-3.75,17.74-6.37,25.3-11.23,4.28-2.75,8.25-1.29,10.29,4,4.29,11.26,14.9,14,25.07,10.4a33.62,33.62,0,0,0,18.86-16.81c1.37-2.64,4.29-6,1.35-8.7s-6.94-3.78-10.7-1.4c-2.94,1.86-6.26,2.06-9.39,3-7,2-15.4-3.36-16.85-10.5-1.61-7.94,3.41-14.38,11.92-15.18,3.74-.36,8.08.38,8.25-5.44.2-6.39-1.52-13.9-6.71-15.73-7.35-2.6-15.93-1.09-22.86,4.14-9.88,7.44-11.23,18.09-10.72,29.29.1,2.06,1.09,3.6-1.7,4.81-11,4.79-23.19,8.84-20.43,25C110.41,242.71,109.41,243.92,108.56,246Zm-2.88-11.71c.44-8.2-2.17-13.84-6.11-19-2.7-3.55-7.35-4.88-10-2.62-4.88,4.17-11,8-10.37,16.37.7,9.62,6.34,15.84,13.26,21.24.83.64,3.17,1.6,6.18.06C106.83,246.13,104,238.76,105.68,234.29Zm-46,29.64c-5.16-5.07-11.51-7.63-12.67-15.69-7.78,8.09-16.58,12.51-25.13,17.24-4,2.21-7.61,5.44-5.66,9.29,1.77,3.49,5.93,5.57,11.49,4.54C39.7,277.1,48.63,269.4,59.68,263.93Zm81.83,47.83c.6,6.34,2,12.47-.65,17.51-1.74,3.38-6.83,7.31-5.19,9.91,2.53,4,8.56,1.52,13.09,1.93,1.54.13,3.11,0,4.66,0,3.53.13,5.32-1.46,5.23-5.07-.18-6.45,1.17-13.46-1-19.17-1.66-4.45-9.41-2-13.71-4.88C143.61,311.77,143,311.89,141.51,311.76ZM88.6,254.52C75.51,240.07,73,234.11,75,222.25c.27-1.57,2.38-3.52-.91-3.82-2-.19-4.16-1.1-5.91,1.83-3.87,6.5-3.82,20,.67,27C73.49,254.53,79.22,258.78,88.6,254.52Zm74.72,85.28c5.51-1.63,9.87-2.76,14.1-4.25,2.33-.82,5.45-2,4.37-5.22-1.71-5.17-3.77-10.25-7.28-14.6-2.81-3.5-6.18-.79-9.13-.77-3.37,0-1.91,3.54-2,5.51C163.19,326.61,163.32,332.76,163.32,339.8Z" transform="translate(-10.42 -13.7)"/><path class="broken-robot" d="M100.82,579.12c-10.71-.19-31.4-15.92-33.64-26A13.36,13.36,0,0,1,71.62,540c4-3.07,5.92-6.83,7.7-10.91,6.53-15,17.6-27.11,26.28-40.73,5-7.91,9.5-16.17,15.28-23.62,1.33-1.71,2.51-2.77,4.24-2.17,7.54,2.66,15.3,1,22.94,1.45,4.33.27,7.6,1.86,9.16,6.26a8.15,8.15,0,0,0,5.49,5c7,2.37,10.16,8.66,14.22,14.1,3.19,4.28,1.53,7.93-1.37,10.83-18,18-31.54,39.32-47.1,59.14-5.61,7.14-12.58,14.56-21.77,18.51A13.8,13.8,0,0,1,100.82,579.12Zm20.53-18.63c15.18-18.16,26.94-38.59,43.44-55.32,2.62-2.65,4.11-6.4,6.56-9.27,3.7-4.36-.65-7-2.43-9.22-1.91-2.38-5.21-.9-7.28,1.56-13.54,16.1-29.88,29.73-41.59,47.48-1.29,1.95-1.84,8.42-6.4,4.81-2.66-2.11,1.42-5.55,2.59-8.34.18-.45.73-.73,1-1.14,12.71-16.2,27.09-30.9,41.14-45.89,1.5-1.59,5.66-3.91,1.88-5.85-4.79-2.45-5.58-10.63-13-8.8-.39.1-.7.64-1,1-3.16,4.2-6.44,8.32-9.42,12.63-7.12,10.32-13.42,21.11-22.41,30.17-5.71,5.75-9.61,13.27-14.41,19.94-2.27,3.15-1,5.29,2.18,5.69,6.67.83,10.12,5.57,14.13,10C119.17,553,117.25,557.71,121.35,560.49Zm22.78-92.85c-9.92-1.1-18.19-.88-23.81,6.34s-10.3,15-15.25,22.69c-8,12.33-17,24.06-22.71,37.75-.81,1.93-3,5.52.16,5.25,3.47-.29,9,1.23,10.84-3.11,6.19-14.34,18.28-24.31,26.66-37C127.05,488.85,133.81,477.85,144.13,467.64ZM93.65,543.4c-4.24-1.19-8.54,1.29-13.12,1.65-2.55.21-6.17.46-7.12,3.16a10.67,10.67,0,0,0,2.3,10.8c4.76,5.16,10.1,9.9,16.32,13.07,4.63,2.36,10.21,4.44,15.2.74a15.11,15.11,0,0,0,6.38-14C113,550.39,107,542.15,93.65,543.4Z" transform="translate(-10.42 -13.7)"/><path class="broken-robot" d="M17.12,711.09c-5.74-16.45,10.26-21,20.26-29.16,3.67-3,8.1-5.11,12-8.08,6.9-5.3,14.42-6.09,23.45-5,20.35,2.42,40.38,7.91,61.14,6.8,8-.43,15.39,2.84,23,4.5,4.16.91,4.61,3,3.75,7.12-1.55,7.44-6.24,14.33-4,22.58.63,2.26-3.1,2.43-4.06,4-6.78,11.09-17.78,18.44-25.25,28.87-1,1.35-2.1,1.13-3.31,1.3-17.13,2.44-33.89,1.17-50.88-2.58-10.56-2.33-21.79-2-32.69-3.41-4.52-.6-7.18-3.46-10.7-5.26-1.79-.92-3.12-3.07-5.91-1.23-5.14,3.41-6.32-1-6.72-4.46C16.72,722.46,17.12,717.75,17.12,711.09Zm132.73-.36a12.85,12.85,0,0,0-2.57-.84c-23.12.44-45.66-2.93-68-9-4.38-1.2-10.83-3.73-13.9-1.31s-6.62,3.73-9.48,6.27C50,711.08,43.79,716,37.72,721.05c-2.37,2-7.41,2.69-6,6.68,1.36,3.75,5.87,5.32,9.63,6.9.44.19,1.08-.09,1.54.08,6.22,2.27,12.81.66,19.06,1.74,17.2,3,34.38,5.47,51.91,4.5,3.82-.21,7.37-.67,10.52-3.13C134.09,730.27,140.58,719.82,149.85,710.73ZM157,683.2c-7.53,1.1-13.29-2.63-19.64-2.93a381.87,381.87,0,0,1-61.18-7.68c-9.08-1.92-10.78-.46-10.83,8.65a26,26,0,0,1-1.28,8.23c-1.06,3.24,0,5.93,4.36,6.39,6,.64,12,1.71,18,2.82,19,3.53,37.74,8,57.19,8.06,4.4,0,6.38-.88,7.8-5.94C152.9,695.29,153.58,689.37,157,683.2ZM60,672.37c-7,5.11-8.46,13.6-15,18.44-3.13,2.34-2.46,7.33-.46,10.6,1.55,2.54,11.21.35,12.2-2.92C59.32,690.17,61.85,681.7,60,672.37ZM40,706.59a1.79,1.79,0,0,0-1.24-2.87c-2.48-.61-5.19,0-6,2.25-1.86,5.32-5.78,8.86-9.61,12.47-2.66,2.51-.53,4.67.62,5.93,2.34,2.58,2.37-1.14,3.5-1.93,3.3-2.29,6.55-4.67,9.78-7.05C39.46,713.61,41.08,711.43,40,706.59Zm-8.17-6c2.55.73,5.23-1.2,6.87-4.39,1.06-2.08,3.18-4.38.59-7-2.83-2.83-4,.54-5.67,1.53s-3.28,2.45-5.1,3.29c-2.17,1-4.84,2.18-4.2,4.6C25,701.4,28.23,700.25,31.82,700.61Zm-1.52,1.72c-7.88-1.73-6.79,4.83-8.44,8.61-.4.92-.5,2.73,1.11,3.2s2.49-.76,3-1.87C27.5,709.11,28.8,705.85,30.3,702.33Z" transform="translate(-10.42 -13.7)"/><path class="broken-robot" d="M389.72,693.46c7.95,2.42,10.93,11.45,7.12,20.55-4.27,10.22-11.1,18.89-17.74,27.4-9.1,11.64-15.22,25.38-25.82,35.88-4.39,4.35-8.47,9.28-15.84,6.34s-10.4-8.44-9-17.09c-5,4.88-10,7.27-16,4.46-6.91-3.22-7.36-9.73-7.86-17.22-1.68,2-2.83,3.46-4.15,4.8-6.84,6.91-10.44,6.82-16.7-.74-5.07-6.12-4.46-13.62-3.17-20.54.62-3.3,4.76-7.68,8.79-5.36,5.44,3.14,6.61-.57,8.57-3.51,13.43-20.13,30.72-36.93,47-54.63,2-2.22,4.82-3.73,7.12-5.72,3.09-2.67,5.2-2.68,8.14.81,5.06,6,13.51,7.07,19.39,12.55,4,3.74,6.37,8.52,10.32,12.12-9.14,20.54-17.73,41.32-30,60.27-3.53,5.44-6.51,11.55-14.45,5.84-7.7-5.55-9.28.92-11.54,6-.41.91-.58,1.93-.92,2.87-2.11,5.85,2.53,9.17,6,10.74s8.09,0,11.08-4.15c9.71-13.41,18.73-27.3,28.55-40.64C387.21,722.67,397.86,710.3,389.72,693.46Zm-5.42.36c-4.53-3.19-5.91-9.15-11.12-12.18-4.64-2.69-11-3.3-14.14-6.71-5.38-5.93-7.58-1.6-10.45,1.36-7.35,7.6-14.84,15.12-21.6,23.23-9.38,11.25-18.17,23-27.14,34.58-3.77,4.88-1,6.34,3.72,6.83,4.2.43,8.15.2,12.58,2,10.5,4.28,20.89,8.87,31.41,13.11,3.87,1.56,6.85-.37,8.37-3.59,7.65-16.31,17.84-31.38,23.71-48.57C380.78,700.56,382.6,697.46,384.3,693.82Zm-80.42,52.44c7.27,2.46,8.37,5.8,6.05,11.81-1.83,4.74,1.72,8.86,6.59,10.41,5.13,1.63,6.15-3.57,6.78-6.16.91-3.7,5-8.59.67-11.64A25.64,25.64,0,0,0,303.88,746.26ZM302.3,744c-2.64,0-5.21-.09-7.77,0-3.09.13-4.52-1.09-3.14-4.09.89-1.94,1.6-3.38-1.36-3.65-2.52-.23-5.47.47-5.06,3.18.49,3.3-1.39,6.74,0,9.43,1.87,3.64,2.08,9.6,6.53,10.28,5.09.78,6.15-5.4,8.35-8.77C300.8,748.92,302.37,746.7,302.3,744Z" transform="translate(-10.42 -13.7)"/><path class="broken-robot" d="M235.48,274.38c54.75,33.34,116.53,47.45,177.14,64.93-12.71-8.86-27.45-13.76-40.65-21.54-18.28-10.78-39.48-13.38-58.71-21.55-8-3.4-16.53-5.6-24.46-9.39-1.61-.77-2.93-1.18-2.42-3,.94-3.4,2.68-.85,4.06-.35,8.54,3.11,17.09,6.2,25.59,9.41,12.52,4.73,25.62,7.57,38.25,12.09,10.68,3.82,20.26,9.62,30.43,14.31,12.84,5.93,25.2,12.88,37.94,19,4.24,2,8.65,1.5,13.62.43,15.67-3.37,30.28-9.67,45.32-14.76a83.4,83.4,0,0,0,7.62-3.45c-17.33-13.89-41-14.06-58.78-27.92,4.65-2.71,8.5-.45,11.26,1.28,13.49,8.51,29.33,10.92,43.59,17.38,4.05,1.84,7,4.93,10.89,6.82s1,4.17-1.47,5.09c-12.06,4.53-24.23,8.75-36.25,13.36-9.2,3.53-19.12,4.7-28,9.24-5.24,2.67-10.61-1.15-15.57-2.18-18-3.73-35.71-9.12-53.54-13.86-16.84-4.48-33.76-9.39-49.76-15.78-14.12-5.65-28.82-10.39-42.35-17.77C257.54,289.82,245,285.08,235.48,274.38Z" transform="translate(-10.42 -13.7)"/><path class="broken-robot" d="M567.25,680.62c-11,13.88-17.75,17.19-25.19,13.25-5.61-3-6-7.91-1.5-21.41-2.44,0-4.75-.14-7,0-5.43.4-11.52-.2-13.26-5.48-1.94-5.86-2.22-12.78,3.25-18,2.63-2.5,5.19-5.07,7.7-7.68,1-1.06,2.73-2,2-3.84a3.78,3.78,0,0,0-4.41-2.33c-4.49.84-8.5-1.54-12.87-1.73-3.71-.15-5.71-3.2-7.09-6.26-1.54-3.39,1.74-5.29,3.47-6.71,13-10.7,33.22-15.58,48.11-2.76,1.87,1.61,3.08,2.21,5.16.3,4.59-4.19,10.22-7,15.8-3,6.54,4.62,13.89,9.17,14.43,18.7.37,6.58-.41,13.14-5,17.91-6.12,6.29-.57,12-.22,18,.43,7.14,2,14.32-.9,21.28-2.54,6.17-7.34,9.43-13.84,7.83-5.79-1.43-8.4-6-8-12.15A50.31,50.31,0,0,0,567.25,680.62Zm-42.7-20.42c-2,7.78,3.25,7.86,7.9,8.86,5.36,1.14,8.76-1.76,12-5.21,1.46-1.55,3.28-3.3,5.28-1.82,2.18,1.63.21,3.63-.56,5.46-2.16,5.2-4.44,10.37-6.19,15.71-.78,2.37-2.24,5.8.84,7.4,2.39,1.25,5.88,1.49,8.12-.33,1.68-1.36,3.8-2.09,5.19-4.19,2.25-3.38,4.84-6.48,6.69-10.18a5.69,5.69,0,0,1,6.37-3.39c3.65.7,2.4,3.8,2.08,5.56-.67,3.61,1.29,6.76,1.09,10.36a5.9,5.9,0,0,0,5.54,5.9c4.28.28,4.92-2.5,6-5.45,3.86-10.72.22-20.46-3.71-30.19-.62-1.54-3.21-3.94-.61-4.6,8.33-2.13,8.38-9.94,9.95-15.43,1.86-6.52-1.46-13.18-7.7-17.2-4.73-3.05-9.77-3.66-14.73-.39-5.31,3.49-9.84,1.18-13.9-2.11-10.63-8.58-21.47-4.31-32.11-.53-2.87,1-6.76,4.11-6.18,6.93.67,3.27,4.87,4.49,8.65,5.23,4.84,1,10.08.53,14.36,4.08,3.48,2.87,3.69,4.29-.48,6.86C531.27,645.92,526.05,652.13,524.55,660.2Z" transform="translate(-10.42 -13.7)"/><path class="broken-robot" d="M179.33,539.26c-3.83,5.55-9.84,9.14-6.88,16.79,1.07,2.78,2.89,3.92,4.73,4,3,.18,3.31-2.57,3.25-5-.18-7.76.15-15.31,7.61-20.23.69-.46.83-1.39.85-2.56.19-10.28.7-10.69,10.75-10.7,3.37,0,6.74-.07,10.1,0,3.94.13,6.09,2.26,6.45,6.2.2,2.07-.69,3.87-2.5,4.34-2.05.52-3.16-1.13-3.64-3.09-.38-1.55.4-5-1.92-4-4.32,1.71-9-1.09-12.67,1.43-1.77,1.24-2.63,5.25,1.11,5.81,6.75,1,13,4.94,20.21,3.37,1.23-.27,2.92-.55,3.82,0,6.21,4.16,10.07.21,14.1-3.67a3.45,3.45,0,0,1,2.76-1c6.31,1.91,9.86,7.41,12.54,12.46,2.09,4-.05,9-5.27,11.21-5,2.11-6.93,7.44-10.83,10.8-4.56,3.93-9,7.27-15.42,7.57-2.57.12-5.47.29-3,5.38,2.62,5.38-3.59,7.5-7.53,8.18-6.29,1.08-13,1-18.88-1.84-3.7-1.78-7.58-4.95-4.56-10.51,4.09-7.53,2-10.48-7.48-10.72-6.76-.17-10.75-5-10.59-12.77C166.58,543.66,171.28,539.06,179.33,539.26Zm31.39,30.53c2.85,0,5.7.09,8.55,0,5.11-.18,12.81-8.88,12.4-13.91-.85-10.42-8.34-17.11-19.21-17.19-5.44,0-12.37,1.94-15.94-.67-4.42-3.23-6.28-.75-7.59,1.15-3.37,4.89-5.17,10.39-3.13,16.64C189.13,566,195.65,569.8,210.72,569.79Zm-10,12.45c1.11,0,1.88,0,2.64,0,3-.22,6.64,1.34,6.77-4.4.15-6.11-3.63-4.74-7-5-2.49-.16-4.9.16-7.49-.83-3.39-1.31-5.51,1.31-6.76,4.24-1.66,3.9,2.09,3.85,4,5.09C195.41,583.09,198.34,581.83,200.74,582.24Zm36.38-26.92c9.59-8,9.72-10.71,3.07-16.69-3.47-3.12-5.43-.8-7.75.48-3.79,2.08.13,3.56.72,5.28C234.39,547.94,235.72,551.46,237.12,555.32Z" transform="translate(-10.42 -13.7)"/><path class="broken-robot" d="M147.56,623.58c.23-3.79-.89-9.18,1.12-12.86,2.95-5.4,8.36-.18,12.7-.29,15.41-.37,30.66-2.52,46-3.23,12-.56,23.64,4.19,35.88,3.22,7.26-.57,14.22-1.37,21.22-3.63,2.5-.8,10.18-3.6,8.05,5.74-.58,2.53,1.79,6.37,3.82,8.72,4.27,4.92,3.07,11.32,5.45,16.7,1.31,2.95-1.14,3.33-3.23,3.36-5.44.08-10.89.31-16.31,0-12.4-.75-24.38,2.92-36.68,3.2-12.89.28-25.63-2.67-38.56-1.64-4.56.36-9.19-.36-13.66,1.47-1.13.46-3.22.66-3.68-1.57-.39-1.89.76-2.56,2.29-3.37a6.74,6.74,0,0,1,4.39-1.09c17.16,3.27,34.52,1.78,51.69,1.13,13.36-.51,26.74-.89,40.11-1.25,7.49-.21,8-2.4,4.84-10-1.61-3.85-1.77-8.36-4-12.12-1.88-3.15-4.67-5.61-8.23-3.92s-7.15.48-10.57,1.27c-11.53,2.65-22.77-1-34-1.11-19.53-.22-39.14,1.29-58.74,1-3.57,0-3.44,2.23-3.43,4.64,0,6.48,0,12.95,0,19.43,0,1.38.57,3.2-1.6,3.76-2.53.66-3.11-1.43-3.74-2.94C146.74,633.77,148.29,629,147.56,623.58Z" transform="translate(-10.42 -13.7)"/><path class="broken-robot" d="M451.16,570.31c-2.83,2.28-5.13.46-6.68-.75-18.24-14.33-40.6-19.38-61.4-28.08C364.62,533.76,345,528.91,328,517.33c-9.32-6.33-21.19-9.08-32.14-12.78-20.45-6.92-41.89-10.63-62-18.78-.7-.29-1.59-.35-2.1-.83-1.28-1.2-4.81-.7-3.66-3.64s3.26-.89,5.12-.24c13.32,4.66,26.37,11.08,40.1,13.35,20.37,3.37,38.82,11.24,57.36,19.27,5.82,2.52,10.83,7,16.71,9.28,19.48,7.61,39.29,14.38,58.77,22,11.18,4.36,21.45,10.81,33.07,14.34C444.59,560.92,448.44,565.3,451.16,570.31Z" transform="translate(-10.42 -13.7)"/><path class="broken-robot" d="M496.22,498.65c.63-19.59-2.75-40.14-1.56-60.79,1.8-31.36,4-62.71,3.07-94.15-.09-3.25-1.36-6.58-.85-9.67.31-1.9.92-5.66,4.59-5,3.21.58,2.38,4.41,2.09,5.53-2.45,9.45-.68,19-1.05,28.44-.35,8.79-.29,17.61,0,26.4.5,16.74-2.92,33.22-3.1,49.88-.3,26.51,3.66,52.87,3.06,79.4,0,1.55,0,3.11,0,4.66.05,2.09.16,5.16-2,5.16-2.49,0-4.24-2.43-4.2-5.5C496.27,515.23,496.22,507.46,496.22,498.65Z" transform="translate(-10.42 -13.7)"/><path class="broken-robot" d="M593.51,587.7c-6.89,4.65-13.12,6.07-18.62-1.09-.16-.22.12-1.13-.59-.94a12.43,12.43,0,0,0-2.62,1.22c-9.26,4.82-12.5,4.4-19.38-2.69-2.49-2.56-5.73-1.64-8.64-1.9-9.84-.87-15.87-6.06-17.81-15.69-1.42-7.08,3-16.15,9.9-19.75,1.43-.75,3.58-2.87,5.08.13s-1.74,2.55-2.81,3.49c-11.2,9.8-7.67,22,3.62,28,4.48,2.39,8.81-.93,9-6.85.14-5.42.16-10.69,4.44-14.93,2.27-2.25,4.67-3.46,7.54-1.92a6.34,6.34,0,0,1,3.6,7.07c-.78,4.31-2,8.28-5.61,11.32-2.18,1.87-5.68,4-2.65,7.55,1.71,2,4.17,6.15,6.48,4.2,3.08-2.61,9.64-.79,9.58-7.27,0-3.37-.32-6.8.24-10.08.5-2.89,1.53-6.19,4.95-7,2.47-.59,5-.4,7.07,1.92,2.56,2.87,2,5.44.32,8.4-1.36,2.44-2.19,5.16-4.43,7.07-1.74,1.49-3.49,3.94-2.35,5.65,1.43,2.16,4.46,4.32,7.23,2.83S591.25,586.17,593.51,587.7Z" transform="translate(-10.42 -13.7)"/><path class="broken-robot" d="M459.11,347.68c15.24-4.73,29,5.71,30.8,22.91a41,41,0,0,1-6.33,26.9c-9.48,14.63-26.31,10.79-31.79-2.35-5.13-12.27-5.8-25,1.76-37.06.28-.43.33-1.12.7-1.34,3.29-2,6.31-8.11,9.54-5.57,3.86,3-2.74,4.68-4.31,6.69-7.56,9.7-6.75,20.48-5,31.21,1.11,6.81,7,11,13.2,12.43,5.57,1.28,8.91-3,11.69-8,7.77-13.85,6.83-30.12-3.12-38.87C471.43,350.43,465.5,348.53,459.11,347.68Z" transform="translate(-10.42 -13.7)"/><path class="broken-robot" d="M607.57,764.86c-8.9-4.33-18.79-.35-27.9-3.86-3.43-1.31-6.57-.92-7.63,4-.91,4.21-2,9.58-8.23,8.43-6.39-1.19-11.82-4.72-11.42-12,.57-10.56,5.12-20,10.91-28.71,1.13-1.72,4.14-1.8,4,.18C567,740,573,745,572.54,752c-.29,4.45,3.28,5.16,6.45,4.18,9.15-2.81,18.43-.52,27.61-1.28,2.47-.21,4.37,1.31,6.29,2.49s1.89,3.16,1.38,4.88C613.16,766.15,609.72,763,607.57,764.86Zm-41.36-23.38c-6.79,6-8.16,13.52-7.68,21.44a5.83,5.83,0,0,0,5.71,5.67c3.46-.09,1.83-3.64,1.89-5.61C566.34,755.82,566.21,748.65,566.21,741.48Z" transform="translate(-10.42 -13.7)"/><path class="broken-robot" d="M277.35,691.08c-1,0-2.39.42-3.07-.07-10.1-7.28-19.43-2.17-28.88,1.62-3.09,1.24-7,2.47-8.56-1.25-1.35-3.23,1.38-6.41,4.09-8.44,1.75-1.31,4.14-1.78,6.22-2.67,7.33-3.14,15-5.81,14.6-16.19-.08-2.27,2-4,5.31-4.19,11.86-.54,23.19,14,19.22,25.07C284.24,690.69,283.51,691.19,277.35,691.08Zm-10-27.57c-2.94,5,1.41,11-4.17,14.9-.36.25.22,1.88.36,2.86,6-3.48,6.37,4,10,5.09,5.23,1.61,8.11.18,8.09-5.83C281.56,672.52,277.54,667.57,267.31,663.51Zm-24.1,23.08c.18.58.35,1.17.53,1.75,5.34-1.7,10.69-3.38,16-5.13,1.82-.6.23-1.51.11-2.28-.29-1.92-1.24-1.56-2.57-.92C252.63,682.26,247.91,684.4,243.21,686.59Z" transform="translate(-10.42 -13.7)"/><path class="broken-robot" d="M276.65,254.63c-17.81,5.1-35.63,10.16-53.43,15.32-1.61.47-3.41,2.43-3.78-.91-.2-1.81.54-2.88,2.84-3.5,14.74-4,29.39-8.32,44.07-12.52A11.91,11.91,0,0,1,276.65,254.63Z" transform="translate(-10.42 -13.7)"/><path class="broken-robot" d="M234.67,567.54c6.38-.11,15.73,7.05,15.74,11.68,0,6.23-4.54,9.25-14,9.24-8,0-12.93-5.21-10.61-11.26.68-1.78,2-3.87,4.17-3.35s2.41,2.87,1.42,4.52c-2.61,4.34,1,5.9,3.51,6.71a9.35,9.35,0,0,0,10.3-3.34c1.59-2-.92-3.08-2-4.35C240.53,574.11,236.6,571.84,234.67,567.54Z" transform="translate(-10.42 -13.7)"/><path class="broken-robot" d="M447.62,551.59c9.41-2.39,16.76-8.44,25.09-12.68,4.75-2.42,9.57-4.58,13.57-8.16,1.5-1.35,3.31-2.28,4.69-.58s-.68,4.12-1.53,4.55C477.11,541,466,549.53,452.73,554.06c-1.31.45-3-.14-4.46-.25C448.05,553.07,447.84,552.33,447.62,551.59Z" transform="translate(-10.42 -13.7)"/><path class="broken-robot" d="M638.44,682.85c6.44-2.93,9.09,2,9.39,6.19s-4,5.24-8.35,5.38c-5.66.18-9.41-1.91-9.16-7.31C630.5,683,633.71,680.31,638.44,682.85Z" transform="translate(-10.42 -13.7)"/><path class="broken-robot" d="M412.53,522.13c7.13-1.91,9.83,2.24,10.23,7.73s-6.34,10.79-11.22,10.42c-3.43-.26-4.15-3-5-5.17a13.31,13.31,0,0,1,.18-9.75c.16-.39,1.43-.66,2-.48,3.32,1,1.24,3.92,1.85,5.9.52,1.69-1.21,4.62,2.29,4.66,2.92,0,4-1.93,3.92-4.62-.06-1.75.37-3.58-1.25-5A35.71,35.71,0,0,1,412.53,522.13Z" transform="translate(-10.42 -13.7)"/><path class="broken-robot" d="M412.29,452.46c-.66,3.14-.43,7.16-5.71,6.89-5.46-.28-8.25-3.1-8.37-8.59-.08-3.91,2-7.05,5.6-6.67C408,444.53,412.13,446.69,412.29,452.46Z" transform="translate(-10.42 -13.7)"/><path class="broken-robot" d="M243.72,404.75c-4.85,1.06-7-1.5-7.18-5.62-.22-4.77,2.49-7.76,7.21-8.12,5.3-.41,7.77,4.1,7.64,7.78C251.28,401.64,248.87,406.37,243.72,404.75Z" transform="translate(-10.42 -13.7)"/><path class="broken-robot" d="M191.39,762.36c-.48-4.69.71-8.44,5.46-8.79,3.53-.26,7.12,2.81,6.39,5.89-.79,3.4.12,9.23-6.35,9.47C191.68,769.13,190.89,766.12,191.39,762.36Z" transform="translate(-10.42 -13.7)"/><path class="broken-robot" d="M241,465.63c3.53-3.51,7.33-4.53,11-1.44,3.41,2.88,1.83,7.34,1.2,10.79s-4.52,4.36-8,4.6c-6.07.42-1.68-6-4.87-6.5,2.26-4.61,7.35,4.12,8.39-2.55C249.64,464.5,243.38,468.77,241,465.63Z" transform="translate(-10.42 -13.7)"/><path class="broken-robot" d="M179.58,723.83c3.61-1.19,5.61-3.12,5.55-6.74,0-1.45.47-2.44,2.13-2.54s2.21.67,2.48,2.18c.9,5-2,8.35-5.81,9.69-3.52,1.23-8.14,2-10.24-3.56-.93-2.46-1.5-4.3.65-6.15,1.1-1,1.89-2.72,3.78-1.86,3.38,1.53.09,4,.76,6A29.67,29.67,0,0,1,179.58,723.83Z" transform="translate(-10.42 -13.7)"/><path class="broken-robot" d="M276,163.8c5.5-.31,9.67,1.45,10.1,7.59s-8.13,13.06-15.64,12.49c-3.41-.25-7.5-1.1-7.47-5.86C263.08,170.58,269.47,163.82,276,163.8Z" transform="translate(-10.42 -13.7)"/><path class="broken-robot" d="M359.06,189.67c3.36-.06,5.29,2.54,6.17,5.07,1.11,3.2-6.64,10.55-10.64,10.16s-7-4.24-6.57-7C348.85,192.76,353.22,189.88,359.06,189.67Z" transform="translate(-10.42 -13.7)"/><path class="broken-robot" d="M367.82,169.45c8.3-2.74,11.06,3.46,14.78,7.09,3.88,3.78,5.61,8.93,6.21,14.3.18,1.58.7,3.84-2.17,4-2.17.1-2.12-1.49-2.55-3C381.56,182.87,376.1,175.94,367.82,169.45Z" transform="translate(-10.42 -13.7)"/><path class="broken-robot" d="M264.4,139.91c0,2.05-.34,2.89-1.65,3.77a29,29,0,0,0-10.13,12.62c-1,2.11-2.06,3.64-4.53,2.43-2.13-1-3.27-3.18-1.85-5.08,4-5.37,7-11.68,13.21-15.24,1.47-.85,2.84-1.42,4.18-.55C264.28,138.27,264.32,139.64,264.4,139.91Z" transform="translate(-10.42 -13.7)"/><path class="broken-robot" d="M210.66,541.38c5.45,1.87,9.46,5.86,9.79,10.41.42,5.79-6,6.58-10.18,6.85-4.9.31-7.93-3.32-8-8.35C202.24,544.75,206.7,543.28,210.66,541.38Zm4.62,10.37c0-3.81-2.34-3.82-4.84-3.74-1.87.07-3.83,0-3.45,2.72.41,2.91,2.44,3.6,5,3.5C213.93,554.14,215.37,553.58,215.28,551.75Z" transform="translate(-10.42 -13.7)"/></svg>
